<svg width="55" height="66" viewBox="0 0 55 66" fill="none" xmlns="http://www.w3.org/2000/svg">
<g filter="url(#filter0_ii_14_285)">
<path d="M27.2233 18.7622C26.874 19.7193 24.6254 23.8295 23.5448 25.765C22.5621 27.399 23.7188 30.4209 33.1124 30.9927C42.7888 31.5817 44.0135 29.2061 42.7944 29.2061C40.8083 29.2061 42.8521 29.9553 45.2726 34.7964C47.6931 39.6374 51.5464 52.3648 49.1915 56.0622C48.1312 57.8772 45.1413 59.3651 42.1314 58.7381C38.5044 57.9825 40.7629 55.0217 38.6921 54.3183C36.9456 53.7251 35.0215 53.7349 34.0254 55.046C33.0292 56.357 33.9933 57.6086 32.4121 58.9421C30.6536 60.4252 24.2382 58.7956 24.2382 58.7956C24.2382 58.7956 15.2943 59.3551 16.6876 51.6822C19.2956 37.3195 5.10249 28.9453 3.44972 35.6625C2.50587 39.4985 7.67479 38.5074 8.38143 40.7838C9.0911 43.0699 5.95601 43.9889 6.66772 46.1085C7.45635 48.4571 11.0121 47.8034 11.6628 50.3445C12.1882 52.3963 11.5452 54.6349 13.5444 55.4581M27.2233 18.7622C27.6599 17.5658 23.8262 10.3553 27.5736 7.80604C28.8742 6.92129 27.7627 16.1786 27.2233 18.7622ZM27.2233 18.7622C26.6839 21.3459 22.4268 20.4953 19.9889 18.7643C17.209 16.7905 16.74 11.9909 16.9899 11.3261C17.2398 10.6613 22.0266 6.11347 26.1831 4.40544C29.9694 2.84955 32.1191 2.17681 36.5351 2.75943C40.5455 3.28854 45.5923 5.25118 46.9386 6.54207C48.2848 7.83295 52.3762 13.4194 51.7681 15.8726C51.16 18.3258 45.9504 18.911 45.6987 16.3439C45.4469 13.7769 45.7664 10.7979 44.0135 8.98791C42.2606 7.1779 41.923 9.54949 42.0152 10.8007C42.1075 12.052 42.9873 16.9929 44.5517 18.99C45.7716 20.5474 45.6987 26.2831 41.0339 25.765C37.9528 25.4227 35.6228 21.8038 35.9358 20.0478C36.3616 17.6589 41.0974 17.3484 41.4026 19.3207C41.7078 21.293 39.7263 27.264 34.0664 25.9112C31.6353 25.3302 30.5318 23.8293 30.0298 22.8339" stroke="#C5A343" stroke-width="2.02255" stroke-linecap="round"/>
</g>
<g filter="url(#filter1_ii_14_285)">
<path d="M33.2633 57.3861C33.1644 56.8803 33.0547 56.331 32.9356 55.7488M32.9356 55.7488C31.6278 49.3529 30.6175 41.7189 30.4405 40.2088C30.1893 38.0659 25.4766 35.7994 25.394 40.9255C25.3113 46.0516 24.0033 59.2877 28.6333 59.5358C33.2633 59.7838 33.4561 58.223 32.9356 55.7488Z" stroke="#C5A343" stroke-width="2.02255" stroke-linecap="round"/>
</g>
<g filter="url(#filter2_ii_14_285)">
<path d="M45.0653 58.7054C43.6659 59.7987 45.6338 55.513 45.5148 54.9308M45.5148 54.9308C44.207 48.5348 43.3389 38.9762 41.9446 38.37C40.043 37.5432 38.3743 39.3758 37.976 41.0984C36.8209 46.0933 38.1413 59.2877 42.7713 59.5358C47.4014 59.7838 46.0353 57.4049 45.5148 54.9308Z" stroke="#C5A343" stroke-width="2.02255" stroke-linecap="round"/>
</g>
<g filter="url(#filter3_i_14_285)">
<ellipse cx="32.0008" cy="12.0829" rx="2.68936" ry="2.76021" fill="white"/>
</g>
<path d="M32.0009 9.07272C33.6301 9.07277 34.9401 10.4264 34.9403 12.0825C34.9403 13.7388 33.6303 15.0932 32.0009 15.0932C30.3714 15.0932 29.0614 13.7388 29.0614 12.0825C29.0616 10.4264 30.3715 9.07272 32.0009 9.07272Z" stroke="#2C2B32" stroke-width="0.5"/>
<g filter="url(#filter4_i_14_285)">
<ellipse cx="40.0373" cy="12.0829" rx="2.68936" ry="2.76021" fill="white"/>
</g>
<path d="M40.0374 9.07272C41.6666 9.07277 42.9766 10.4264 42.9768 12.0825C42.9768 13.7388 41.6668 15.0932 40.0374 15.0932C38.4079 15.0932 37.0979 13.7388 37.0979 12.0825C37.0981 10.4264 38.408 9.07272 40.0374 9.07272Z" stroke="#2C2B32" stroke-width="0.5"/>
<g filter="url(#filter5_i_14_285)">
<ellipse cx="32.0007" cy="12.0829" rx="2.20466" ry="2.26274" fill="#2C2B32"/>
</g>
<g filter="url(#filter6_i_14_285)">
<ellipse cx="40.0372" cy="12.0829" rx="2.20466" ry="2.26274" fill="#2C2B32"/>
</g>
<path d="M33.4339 6.94334C33.6451 6.96596 33.8462 6.90172 33.9926 6.74955C34.139 6.59826 34.2188 6.37148 34.2145 6.13429C34.2103 5.8971 34.1225 5.67331 33.9708 5.52735C33.8191 5.3805 33.6158 5.32348 33.4055 5.35363C33.4055 5.35363 33.4055 5.35363 33.4055 5.35363C33.297 5.36399 33.2021 5.38219 33.115 5.40239C31.7196 5.84601 30.7245 6.40161 29.7027 7.36403C29.649 7.42719 29.5912 7.49855 29.5404 7.59763C29.512 7.66207 29.511 7.73967 29.5334 7.81074C29.556 7.88197 29.6002 7.94085 29.6605 7.97703C29.7208 8.01321 29.7935 8.02447 29.867 8.01092C29.9403 7.99722 30.0082 7.95983 30.0517 7.90439C30.0517 7.90439 30.0517 7.90439 30.0517 7.90439C30.0684 7.89166 30.106 7.85997 30.1474 7.83254C31.035 7.31899 32.3639 6.96215 33.3246 6.92835C33.3709 6.93025 33.4127 6.93531 33.4339 6.94334Z" fill="#27262B"/>
<path d="M38.3846 6.94334C38.1733 6.96596 37.9722 6.90172 37.8258 6.74955C37.6794 6.59826 37.5997 6.37148 37.6039 6.13429C37.6081 5.8971 37.6959 5.67331 37.8476 5.52735C37.9994 5.3805 38.2026 5.32348 38.4129 5.35363C38.4129 5.35363 38.4129 5.35363 38.4129 5.35363C38.5214 5.36399 38.6164 5.38219 38.7034 5.40239C40.0988 5.84601 41.0939 6.40161 42.1157 7.36403C42.1694 7.42719 42.2273 7.49855 42.278 7.59763C42.3064 7.66207 42.3074 7.73967 42.285 7.81074C42.2624 7.88197 42.2182 7.94085 42.158 7.97703C42.0977 8.01321 42.0249 8.02447 41.9514 8.01092C41.8782 7.99722 41.8102 7.95983 41.7667 7.90439C41.7667 7.90439 41.7667 7.90439 41.7667 7.90439C41.75 7.89166 41.7125 7.85997 41.671 7.83254C40.7834 7.31899 39.4546 6.96215 38.4938 6.92835C38.4475 6.93025 38.4058 6.93531 38.3846 6.94334Z" fill="#27262B"/>
<defs>
<filter id="filter0_ii_14_285" x="2.32416" y="1.54044" width="50.5162" height="59.0361" filterUnits="userSpaceOnUse" color-interpolation-filters="sRGB">
<feFlood flood-opacity="0" result="BackgroundImageFix"/>
<feBlend mode="normal" in="SourceGraphic" in2="BackgroundImageFix" result="shape"/>
<feColorMatrix in="SourceAlpha" type="matrix" values="0 0 0 0 0 0 0 0 0 0 0 0 0 0 0 0 0 0 127 0" result="hardAlpha"/>
<feOffset dx="1.21353" dy="-0.520085"/>
<feComposite in2="hardAlpha" operator="arithmetic" k2="-1" k3="1"/>
<feColorMatrix type="matrix" values="0 0 0 0 1 0 0 0 0 0.976923 0 0 0 0 0.884615 0 0 0 1 0"/>
<feBlend mode="normal" in2="shape" result="effect1_innerShadow_14_285"/>
<feColorMatrix in="SourceAlpha" type="matrix" values="0 0 0 0 0 0 0 0 0 0 0 0 0 0 0 0 0 0 127 0" result="hardAlpha"/>
<feOffset dx="-0.404511" dy="-0.693447"/>
<feComposite in2="hardAlpha" operator="arithmetic" k2="-1" k3="1"/>
<feColorMatrix type="matrix" values="0 0 0 0 0 0 0 0 0 0 0 0 0 0 0 0 0 0 0.16 0"/>
<feBlend mode="normal" in2="effect1_innerShadow_14_285" result="effect2_innerShadow_14_285"/>
</filter>
<filter id="filter1_ii_14_285" x="24.1511" y="36.8005" width="10.1237" height="23.7723" filterUnits="userSpaceOnUse" color-interpolation-filters="sRGB">
<feFlood flood-opacity="0" result="BackgroundImageFix"/>
<feBlend mode="normal" in="SourceGraphic" in2="BackgroundImageFix" result="shape"/>
<feColorMatrix in="SourceAlpha" type="matrix" values="0 0 0 0 0 0 0 0 0 0 0 0 0 0 0 0 0 0 127 0" result="hardAlpha"/>
<feOffset dx="1.21353" dy="-0.520085"/>
<feComposite in2="hardAlpha" operator="arithmetic" k2="-1" k3="1"/>
<feColorMatrix type="matrix" values="0 0 0 0 1 0 0 0 0 0.976923 0 0 0 0 0.884615 0 0 0 1 0"/>
<feBlend mode="normal" in2="shape" result="effect1_innerShadow_14_285"/>
<feColorMatrix in="SourceAlpha" type="matrix" values="0 0 0 0 0 0 0 0 0 0 0 0 0 0 0 0 0 0 127 0" result="hardAlpha"/>
<feOffset dx="-0.404511" dy="-0.693447"/>
<feComposite in2="hardAlpha" operator="arithmetic" k2="-1" k3="1"/>
<feColorMatrix type="matrix" values="0 0 0 0 0 0 0 0 0 0 0 0 0 0 0 0 0 0 0.16 0"/>
<feBlend mode="normal" in2="effect1_innerShadow_14_285" result="effect2_innerShadow_14_285"/>
</filter>
<filter id="filter2_ii_14_285" x="36.5705" y="37.1531" width="10.5519" height="23.4119" filterUnits="userSpaceOnUse" color-interpolation-filters="sRGB">
<feFlood flood-opacity="0" result="BackgroundImageFix"/>
<feBlend mode="normal" in="SourceGraphic" in2="BackgroundImageFix" result="shape"/>
<feColorMatrix in="SourceAlpha" type="matrix" values="0 0 0 0 0 0 0 0 0 0 0 0 0 0 0 0 0 0 127 0" result="hardAlpha"/>
<feOffset dx="1.21353" dy="-0.520085"/>
<feComposite in2="hardAlpha" operator="arithmetic" k2="-1" k3="1"/>
<feColorMatrix type="matrix" values="0 0 0 0 1 0 0 0 0 0.976923 0 0 0 0 0.884615 0 0 0 1 0"/>
<feBlend mode="normal" in2="shape" result="effect1_innerShadow_14_285"/>
<feColorMatrix in="SourceAlpha" type="matrix" values="0 0 0 0 0 0 0 0 0 0 0 0 0 0 0 0 0 0 127 0" result="hardAlpha"/>
<feOffset dx="-0.404511" dy="-0.693447"/>
<feComposite in2="hardAlpha" operator="arithmetic" k2="-1" k3="1"/>
<feColorMatrix type="matrix" values="0 0 0 0 0 0 0 0 0 0 0 0 0 0 0 0 0 0 0.16 0"/>
<feBlend mode="normal" in2="effect1_innerShadow_14_285" result="effect2_innerShadow_14_285"/>
</filter>
<filter id="filter3_i_14_285" x="28.8114" y="8.82272" width="6.37872" height="6.52043" filterUnits="userSpaceOnUse" color-interpolation-filters="sRGB">
<feFlood flood-opacity="0" result="BackgroundImageFix"/>
<feBlend mode="normal" in="SourceGraphic" in2="BackgroundImageFix" result="shape"/>
<feColorMatrix in="SourceAlpha" type="matrix" values="0 0 0 0 0 0 0 0 0 0 0 0 0 0 0 0 0 0 127 0" result="hardAlpha"/>
<feOffset dx="1" dy="-1"/>
<feComposite in2="hardAlpha" operator="arithmetic" k2="-1" k3="1"/>
<feColorMatrix type="matrix" values="0 0 0 0 0 0 0 0 0 0 0 0 0 0 0 0 0 0 0.25 0"/>
<feBlend mode="normal" in2="shape" result="effect1_innerShadow_14_285"/>
</filter>
<filter id="filter4_i_14_285" x="36.8479" y="8.82272" width="6.37872" height="6.52043" filterUnits="userSpaceOnUse" color-interpolation-filters="sRGB">
<feFlood flood-opacity="0" result="BackgroundImageFix"/>
<feBlend mode="normal" in="SourceGraphic" in2="BackgroundImageFix" result="shape"/>
<feColorMatrix in="SourceAlpha" type="matrix" values="0 0 0 0 0 0 0 0 0 0 0 0 0 0 0 0 0 0 127 0" result="hardAlpha"/>
<feOffset dx="1" dy="-1"/>
<feComposite in2="hardAlpha" operator="arithmetic" k2="-1" k3="1"/>
<feColorMatrix type="matrix" values="0 0 0 0 0 0 0 0 0 0 0 0 0 0 0 0 0 0 0.25 0"/>
<feBlend mode="normal" in2="shape" result="effect1_innerShadow_14_285"/>
</filter>
<filter id="filter5_i_14_285" x="29.7961" y="9.82021" width="4.4093" height="4.52548" filterUnits="userSpaceOnUse" color-interpolation-filters="sRGB">
<feFlood flood-opacity="0" result="BackgroundImageFix"/>
<feBlend mode="normal" in="SourceGraphic" in2="BackgroundImageFix" result="shape"/>
<feColorMatrix in="SourceAlpha" type="matrix" values="0 0 0 0 0 0 0 0 0 0 0 0 0 0 0 0 0 0 127 0" result="hardAlpha"/>
<feOffset dx="2" dy="-4"/>
<feComposite in2="hardAlpha" operator="arithmetic" k2="-1" k3="1"/>
<feColorMatrix type="matrix" values="0 0 0 0 0 0 0 0 0 0 0 0 0 0 0 0 0 0 0.25 0"/>
<feBlend mode="normal" in2="shape" result="effect1_innerShadow_14_285"/>
</filter>
<filter id="filter6_i_14_285" x="37.8325" y="9.82021" width="4.4093" height="4.52548" filterUnits="userSpaceOnUse" color-interpolation-filters="sRGB">
<feFlood flood-opacity="0" result="BackgroundImageFix"/>
<feBlend mode="normal" in="SourceGraphic" in2="BackgroundImageFix" result="shape"/>
<feColorMatrix in="SourceAlpha" type="matrix" values="0 0 0 0 0 0 0 0 0 0 0 0 0 0 0 0 0 0 127 0" result="hardAlpha"/>
<feOffset dx="2" dy="-4"/>
<feComposite in2="hardAlpha" operator="arithmetic" k2="-1" k3="1"/>
<feColorMatrix type="matrix" values="0 0 0 0 0 0 0 0 0 0 0 0 0 0 0 0 0 0 0.25 0"/>
<feBlend mode="normal" in2="shape" result="effect1_innerShadow_14_285"/>
</filter>
</defs>
</svg>
